<svg xmlns="http://www.w3.org/2000/svg" viewBox="0 0 720 420" font-family="Inter, Arial, sans-serif" role="img" aria-label="Ba sơ đồ lò xo nối tiếp song song và cắt lò xo để thấy cấu hình trước khi dùng công thức">
<title>Ba sơ đồ lò xo nối tiếp song song và cắt lò xo để thấy cấu hình trước khi dùng công thức</title>
<defs>
  <marker id="arrow" markerWidth="8" markerHeight="8" refX="7" refY="4" orient="auto" markerUnits="strokeWidth"><path d="M0,0 L8,4 L0,8 z" fill="context-stroke"/></marker>
  <marker id="arrowStart" markerWidth="8" markerHeight="8" refX="1" refY="4" orient="auto" markerUnits="strokeWidth"><path d="M8,0 L0,4 L8,8 z" fill="context-stroke"/></marker>
</defs>
<rect x="1" y="1" width="718" height="418" rx="18" fill="#ffffff" stroke="#e5e7eb"/>
<text x="360" y="34" text-anchor="middle" font-size="23" font-weight="700" fill="#18212f" >Nhìn cấu hình trước khi dùng công thức độ cứng tương đương</text>
<rect x="35" y="70" width="200" height="300" rx="12" fill="#f8fafc" stroke="#e5e7eb" stroke-width="2"/>
<text x="135" y="102" text-anchor="middle" font-size="20" font-weight="700" fill="#18212f" >Nối tiếp</text>
<line x1="58" y1="135" x2="58" y2="235" stroke="#18212f" stroke-width="5" stroke-linecap="round" opacity="1" />
<polyline points="58,185 76,185 78.6,193 81.2,177 83.8,193 86.4,177 89.0,193 91.6,177 94.2,193 96.8,177 99.4,193 102.0,177 102,185 120,185" fill="none" stroke="#18212f" stroke-width="3" stroke-linecap="round" stroke-linejoin="round"/>
<circle cx="126" cy="185" r="4" fill="#18212f" stroke="#18212f" stroke-width="1" opacity="1"/>
<polyline points="132,185 150,185 151.7,193 153.4,177 155.1,193 156.8,177 158.5,193 160.2,177 161.9,193 163.6,177 165.3,193 167.0,177 167,185 185,185" fill="none" stroke="#18212f" stroke-width="3" stroke-linecap="round" stroke-linejoin="round"/>
<rect x="185" y="160" width="32" height="50" rx="5" fill="#dbeafe" stroke="#2563eb" stroke-width="2"/>
<text x="135" y="320" text-anchor="middle" font-size="17" font-weight="700" fill="#7c3aed" >1/k = 1/k₁ + 1/k₂</text>
<rect x="260" y="70" width="200" height="300" rx="12" fill="#f8fafc" stroke="#e5e7eb" stroke-width="2"/>
<text x="360" y="102" text-anchor="middle" font-size="20" font-weight="700" fill="#18212f" >Song song</text>
<line x1="290" y1="145" x2="290" y2="265" stroke="#18212f" stroke-width="5" stroke-linecap="round" opacity="1" />
<polyline points="290,170 308,170 313.64285714285717,178 319.2857142857143,162 324.92857142857144,178 330.57142857142856,162 336.2142857142857,178 341.85714285714283,162 347.5,178 353.14285714285717,162 358.7857142857143,178 364.42857142857144,162 370.07142857142856,178 375.7142857142857,162 381.3571428571429,178 387.0,162 387,170 405,170" fill="none" stroke="#18212f" stroke-width="3" stroke-linecap="round" stroke-linejoin="round"/>
<polyline points="290,240 308,240 313.64285714285717,248 319.2857142857143,232 324.92857142857144,248 330.57142857142856,232 336.2142857142857,248 341.85714285714283,232 347.5,248 353.14285714285717,232 358.7857142857143,248 364.42857142857144,232 370.07142857142856,248 375.7142857142857,232 381.3571428571429,248 387.0,232 387,240 405,240" fill="none" stroke="#18212f" stroke-width="3" stroke-linecap="round" stroke-linejoin="round"/>
<rect x="405" y="170" width="35" height="100" rx="6" fill="#dbeafe" stroke="#2563eb" stroke-width="2"/>
<text x="360" y="320" text-anchor="middle" font-size="17" font-weight="700" fill="#7c3aed" >k = k₁ + k₂</text>
<rect x="485" y="70" width="200" height="300" rx="12" fill="#f8fafc" stroke="#e5e7eb" stroke-width="2"/>
<text x="585" y="102" text-anchor="middle" font-size="20" font-weight="700" fill="#18212f" >Cắt lò xo đều</text>
<polyline points="510,155 528,155 534.3333333333334,163 540.6666666666666,147 547.0,163 553.3333333333334,147 559.6666666666666,163 566.0,147 572.3333333333334,163 578.6666666666666,147 585.0,163 591.3333333333334,147 597.6666666666666,163 604.0,147 610.3333333333334,163 616.6666666666666,147 623.0,163 629.3333333333334,147 635.6666666666666,163 642.0,147 642,155 660,155" fill="none" stroke="#18212f" stroke-width="3" stroke-linecap="round" stroke-linejoin="round"/>
<line x1="585" y1="130" x2="585" y2="180" stroke="#dc2626" stroke-width="3" stroke-linecap="round" opacity="1" stroke-dasharray="5 4"/>
<text x="585" y="205" text-anchor="middle" font-size="16" font-weight="700" fill="#dc2626" >cắt tại đây</text>
<polyline points="520,260 538,260 541.4,268 544.8,252 548.2,268 551.6,252 555.0,268 558.4,252 561.8,268 565.2,252 568.6,268 572.0,252 572,260 590,260" fill="none" stroke="#18212f" stroke-width="3" stroke-linecap="round" stroke-linejoin="round"/>
<polyline points="605,260 623,260 625.375,268 627.75,252 630.125,268 632.5,252 634.875,268 637.25,252 639.625,268 642.0,252 642,260 660,260" fill="none" stroke="#18212f" stroke-width="3" stroke-linecap="round" stroke-linejoin="round"/>
<text x="585" y="320" text-anchor="middle" font-size="17" font-weight="700" fill="#7c3aed" >kℓ = hằng số</text>
</svg>
